<?xml version='1.0' encoding='utf-8'?>
<svg xmlns="http://www.w3.org/2000/svg" xmlns:dc="http://purl.org/dc/elements/1.1/" xmlns:ns2="http://creativecommons.org/ns#" xmlns:ns4="http://www.w3.org/1999/xlink" xmlns:rdf="http://www.w3.org/1999/02/22-rdf-syntax-ns#" width="1080pt" height="720pt" viewBox="0 0 1080 720" version="1.1" role="img" aria-labelledby="corpora-title corpora-description">
 <title id="corpora-title">Gamma EH training: 5 sources, 0 of 6 candidates qualify</title><desc id="corpora-description">Write &amp; Improve: 11443 trained pairs, diagnostic test F0.5 10.72, guarded F0.5 0.00; FCE: 11443 trained pairs, diagnostic test F0.5 2.24, guarded F0.5 0.00; C4_200M: 7451 trained pairs, diagnostic test F0.5 0.00, guarded F0.5 0.00; GitHub Typo: 440 trained pairs, diagnostic test F0.5 0.00, guarded F0.5 0.00; WikEd: 10139 trained pairs, diagnostic test F0.5 0.00, guarded F0.5 0.00; Available-source mix: 34047 trained pairs, diagnostic test F0.5 6.22, guarded F0.5 0.00. Access pending: nucle, lang8, clang8. Not official GLEU or browser quality. Unequal pilot sizes. Shipped model unchanged.</desc><metadata>
  <rdf:RDF>
   <ns2:Work>
    <dc:type rdf:resource="http://purl.org/dc/dcmitype/StillImage" />
    <dc:format>image/svg+xml</dc:format>
    <dc:creator>
     <ns2:Agent>
      <dc:title>Matplotlib v3.10.7, https://matplotlib.org/</dc:title>
     </ns2:Agent>
    </dc:creator>
   </ns2:Work>
  </rdf:RDF>
 </metadata>
 <defs>
  <style type="text/css">*{stroke-linejoin: round; stroke-linecap: butt}</style>
 </defs>
 <g id="figure_1">
  <g id="patch_1">
   <path d="M 0 720  L 1080 720  L 1080 0  L 0 0  z " style="fill: #f8f6f1" />
  </g>
  <g id="axes_1">
   <g id="patch_2">
    <path d="M 172.8 511.2  L 482.505882 511.2  L 482.505882 208.8  L 172.8 208.8  z " style="fill: #f8f6f1" />
   </g>
   <g id="matplotlib.axis_1">
    <g id="xtick_1">
     <g id="line2d_1">
      <path d="M 172.8 511.2  L 172.8 208.8  " clip-path="url(#p863401bf4f)" style="fill: none; stroke: #e4e2da; stroke-width: 0.8; stroke-linecap: square" />
     </g>
     <g id="line2d_2">
      <defs>
       <path id="mcfab345185" d="M 0 0  L 0 3.5  " style="stroke: #606660; stroke-width: 0.8" />
      </defs>
      <g>
       <use ns4:href="#mcfab345185" x="172.8" y="511.2" style="fill: #606660; stroke: #606660; stroke-width: 0.8" />
      </g>
     </g>
     <g id="text_1">
      <text style="font-size: 13px; font-family: 'DejaVu Sans'; text-anchor: middle; fill: #606660" x="172.8" y="528.077969" transform="rotate(-0 172.8 528.077969)">0</text>
     </g>
    </g>
    <g id="xtick_2">
     <g id="line2d_3">
      <path d="M 246.158243 511.2  L 246.158243 208.8  " clip-path="url(#p863401bf4f)" style="fill: none; stroke: #e4e2da; stroke-width: 0.8; stroke-linecap: square" />
     </g>
     <g id="line2d_4">
      <g>
       <use ns4:href="#mcfab345185" x="246.158243" y="511.2" style="fill: #606660; stroke: #606660; stroke-width: 0.8" />
      </g>
     </g>
     <g id="text_2">
      <text style="font-size: 13px; font-family: 'DejaVu Sans'; text-anchor: middle; fill: #606660" x="246.158243" y="528.077969" transform="rotate(-0 246.158243 528.077969)">10000</text>
     </g>
    </g>
    <g id="xtick_3">
     <g id="line2d_5">
      <path d="M 319.516485 511.2  L 319.516485 208.8  " clip-path="url(#p863401bf4f)" style="fill: none; stroke: #e4e2da; stroke-width: 0.8; stroke-linecap: square" />
     </g>
     <g id="line2d_6">
      <g>
       <use ns4:href="#mcfab345185" x="319.516485" y="511.2" style="fill: #606660; stroke: #606660; stroke-width: 0.8" />
      </g>
     </g>
     <g id="text_3">
      <text style="font-size: 13px; font-family: 'DejaVu Sans'; text-anchor: middle; fill: #606660" x="319.516485" y="528.077969" transform="rotate(-0 319.516485 528.077969)">20000</text>
     </g>
    </g>
    <g id="xtick_4">
     <g id="line2d_7">
      <path d="M 392.874728 511.2  L 392.874728 208.8  " clip-path="url(#p863401bf4f)" style="fill: none; stroke: #e4e2da; stroke-width: 0.8; stroke-linecap: square" />
     </g>
     <g id="line2d_8">
      <g>
       <use ns4:href="#mcfab345185" x="392.874728" y="511.2" style="fill: #606660; stroke: #606660; stroke-width: 0.8" />
      </g>
     </g>
     <g id="text_4">
      <text style="font-size: 13px; font-family: 'DejaVu Sans'; text-anchor: middle; fill: #606660" x="392.874728" y="528.077969" transform="rotate(-0 392.874728 528.077969)">30000</text>
     </g>
    </g>
    <g id="xtick_5">
     <g id="line2d_9">
      <path d="M 466.23297 511.2  L 466.23297 208.8  " clip-path="url(#p863401bf4f)" style="fill: none; stroke: #e4e2da; stroke-width: 0.8; stroke-linecap: square" />
     </g>
     <g id="line2d_10">
      <g>
       <use ns4:href="#mcfab345185" x="466.23297" y="511.2" style="fill: #606660; stroke: #606660; stroke-width: 0.8" />
      </g>
     </g>
     <g id="text_5">
      <text style="font-size: 13px; font-family: 'DejaVu Sans'; text-anchor: middle; fill: #606660" x="466.23297" y="528.077969" transform="rotate(-0 466.23297 528.077969)">40000</text>
     </g>
    </g>
    <g id="text_6">
     <text style="font-size: 10px; font-family: 'DejaVu Sans'; text-anchor: middle; fill: #606660" x="327.652941" y="550.38" transform="rotate(-0 327.652941 550.38)">Training pairs within the edit vocabulary and context</text>
    </g>
   </g>
   <g id="matplotlib.axis_2">
    <g id="ytick_1">
     <g id="line2d_11" />
     <g id="text_7">
      <text style="font-size: 13px; font-family: 'DejaVu Sans'; text-anchor: end; fill: #303632" x="162.8" y="241.328782" transform="rotate(-0 162.8 241.328782)">Write &amp; Improve</text>
     </g>
    </g>
    <g id="ytick_2">
     <g id="line2d_12" />
     <g id="text_8">
      <text style="font-size: 13px; font-family: 'DejaVu Sans'; text-anchor: end; fill: #303632" x="162.8" y="290.772863" transform="rotate(-0 162.8 290.772863)">FCE</text>
     </g>
    </g>
    <g id="ytick_3">
     <g id="line2d_13" />
     <g id="text_9">
      <text style="font-size: 13px; font-family: 'DejaVu Sans'; text-anchor: end; fill: #303632" x="162.8" y="340.102178" transform="rotate(-0 162.8 340.102178)">C4_200M</text>
     </g>
    </g>
    <g id="ytick_4">
     <g id="line2d_14" />
     <g id="text_10">
      <text style="font-size: 13px; font-family: 'DejaVu Sans'; text-anchor: end; fill: #303632" x="162.8" y="389.661025" transform="rotate(-0 162.8 389.661025)">GitHub Typo</text>
     </g>
    </g>
    <g id="ytick_5">
     <g id="line2d_15" />
     <g id="text_11">
      <text style="font-size: 13px; font-family: 'DejaVu Sans'; text-anchor: end; fill: #303632" x="162.8" y="439.105106" transform="rotate(-0 162.8 439.105106)">WikEd</text>
     </g>
    </g>
    <g id="ytick_6">
     <g id="line2d_16" />
     <g id="text_12">
      <text style="font-size: 13px; font-family: 'DejaVu Sans'; text-anchor: end; fill: #303632" x="162.8" y="488.549187" transform="rotate(-0 162.8 488.549187)">Available-source mix</text>
     </g>
    </g>
   </g>
   <g id="patch_3">
    <path d="M 172.8 511.2  L 482.505882 511.2  " style="fill: none; stroke: #c6c6bf; stroke-width: 0.8; stroke-linejoin: miter; stroke-linecap: square" />
   </g>
   <g id="patch_4">
    <path d="M 172.8 222.545455  L 256.743837 222.545455  L 256.743837 250.23414  L 172.8 250.23414  z " clip-path="url(#p863401bf4f)" style="fill: #466887" />
   </g>
   <g id="patch_5">
    <path d="M 172.8 271.989536  L 256.743837 271.989536  L 256.743837 299.678221  L 172.8 299.678221  z " clip-path="url(#p863401bf4f)" style="fill: #466887" />
   </g>
   <g id="patch_6">
    <path d="M 172.8 321.433617  L 227.459227 321.433617  L 227.459227 349.122302  L 172.8 349.122302  z " clip-path="url(#p863401bf4f)" style="fill: #466887" />
   </g>
   <g id="patch_7">
    <path d="M 172.8 370.877698  L 176.027763 370.877698  L 176.027763 398.566383  L 172.8 398.566383  z " clip-path="url(#p863401bf4f)" style="fill: #466887" />
   </g>
   <g id="patch_8">
    <path d="M 172.8 420.321779  L 247.177922 420.321779  L 247.177922 448.010464  L 172.8 448.010464  z " clip-path="url(#p863401bf4f)" style="fill: #466887" />
   </g>
   <g id="patch_9">
    <path d="M 172.8 469.76586  L 422.562808 469.76586  L 422.562808 497.454545  L 172.8 497.454545  z " clip-path="url(#p863401bf4f)" style="fill: #466887" />
   </g>
   <g id="text_13">
    <text style="font-weight: 700; font-size: 13px; font-family: 'DejaVu Sans'; text-anchor: start; fill: #303632" x="262.987907" y="239.976985" transform="rotate(-0 262.987907 239.976985)">11,443</text>
   </g>
   <g id="text_14">
    <text style="font-weight: 700; font-size: 13px; font-family: 'DejaVu Sans'; text-anchor: start; fill: #303632" x="262.987907" y="289.421066" transform="rotate(-0 262.987907 289.421066)">11,443</text>
   </g>
   <g id="text_15">
    <text style="font-weight: 700; font-size: 13px; font-family: 'DejaVu Sans'; text-anchor: start; fill: #303632" x="233.703297" y="338.865147" transform="rotate(-0 233.703297 338.865147)">7,451</text>
   </g>
   <g id="text_16">
    <text style="font-weight: 700; font-size: 13px; font-family: 'DejaVu Sans'; text-anchor: start; fill: #303632" x="182.271833" y="388.309228" transform="rotate(-0 182.271833 388.309228)">440</text>
   </g>
   <g id="text_17">
    <text style="font-weight: 700; font-size: 13px; font-family: 'DejaVu Sans'; text-anchor: start; fill: #303632" x="253.421992" y="437.753309" transform="rotate(-0 253.421992 437.753309)">10,139</text>
   </g>
   <g id="text_18">
    <text style="font-weight: 700; font-size: 13px; font-family: 'DejaVu Sans'; text-anchor: start; fill: #303632" x="428.806879" y="487.19739" transform="rotate(-0 428.806879 487.19739)">34,047</text>
   </g>
   <g id="text_19">
    <text style="font-weight: 700; font-size: 15px; font-family: 'DejaVu Sans'; text-anchor: start; fill: #303632" x="172.8" y="186.8" transform="rotate(-0 172.8 186.8)">Pairs actually used for training</text>
   </g>
  </g>
  <g id="axes_2">
   <g id="patch_10">
    <path d="M 705.494118 511.2  L 1015.2 511.2  L 1015.2 208.8  L 705.494118 208.8  z " style="fill: #f8f6f1" />
   </g>
   <g id="matplotlib.axis_3">
    <g id="xtick_6">
     <g id="line2d_17">
      <path d="M 705.494118 511.2  L 705.494118 208.8  " clip-path="url(#p0d13bf38f7)" style="fill: none; stroke: #e4e2da; stroke-width: 0.8; stroke-linecap: square" />
     </g>
     <g id="line2d_18">
      <g>
       <use ns4:href="#mcfab345185" x="705.494118" y="511.2" style="fill: #606660; stroke: #606660; stroke-width: 0.8" />
      </g>
     </g>
     <g id="text_20">
      <text style="font-size: 13px; font-family: 'DejaVu Sans'; text-anchor: middle; fill: #606660" x="705.494118" y="528.077969" transform="rotate(-0 705.494118 528.077969)">0</text>
     </g>
    </g>
    <g id="xtick_7">
     <g id="line2d_19">
      <path d="M 775.881818 511.2  L 775.881818 208.8  " clip-path="url(#p0d13bf38f7)" style="fill: none; stroke: #e4e2da; stroke-width: 0.8; stroke-linecap: square" />
     </g>
     <g id="line2d_20">
      <g>
       <use ns4:href="#mcfab345185" x="775.881818" y="511.2" style="fill: #606660; stroke: #606660; stroke-width: 0.8" />
      </g>
     </g>
     <g id="text_21">
      <text style="font-size: 13px; font-family: 'DejaVu Sans'; text-anchor: middle; fill: #606660" x="775.881818" y="528.077969" transform="rotate(-0 775.881818 528.077969)">25</text>
     </g>
    </g>
    <g id="xtick_8">
     <g id="line2d_21">
      <path d="M 846.269519 511.2  L 846.269519 208.8  " clip-path="url(#p0d13bf38f7)" style="fill: none; stroke: #e4e2da; stroke-width: 0.8; stroke-linecap: square" />
     </g>
     <g id="line2d_22">
      <g>
       <use ns4:href="#mcfab345185" x="846.269519" y="511.2" style="fill: #606660; stroke: #606660; stroke-width: 0.8" />
      </g>
     </g>
     <g id="text_22">
      <text style="font-size: 13px; font-family: 'DejaVu Sans'; text-anchor: middle; fill: #606660" x="846.269519" y="528.077969" transform="rotate(-0 846.269519 528.077969)">50</text>
     </g>
    </g>
    <g id="xtick_9">
     <g id="line2d_23">
      <path d="M 916.657219 511.2  L 916.657219 208.8  " clip-path="url(#p0d13bf38f7)" style="fill: none; stroke: #e4e2da; stroke-width: 0.8; stroke-linecap: square" />
     </g>
     <g id="line2d_24">
      <g>
       <use ns4:href="#mcfab345185" x="916.657219" y="511.2" style="fill: #606660; stroke: #606660; stroke-width: 0.8" />
      </g>
     </g>
     <g id="text_23">
      <text style="font-size: 13px; font-family: 'DejaVu Sans'; text-anchor: middle; fill: #606660" x="916.657219" y="528.077969" transform="rotate(-0 916.657219 528.077969)">75</text>
     </g>
    </g>
    <g id="xtick_10">
     <g id="line2d_25">
      <path d="M 987.04492 511.2  L 987.04492 208.8  " clip-path="url(#p0d13bf38f7)" style="fill: none; stroke: #e4e2da; stroke-width: 0.8; stroke-linecap: square" />
     </g>
     <g id="line2d_26">
      <g>
       <use ns4:href="#mcfab345185" x="987.04492" y="511.2" style="fill: #606660; stroke: #606660; stroke-width: 0.8" />
      </g>
     </g>
     <g id="text_24">
      <text style="font-size: 13px; font-family: 'DejaVu Sans'; text-anchor: middle; fill: #606660" x="987.04492" y="528.077969" transform="rotate(-0 987.04492 528.077969)">100</text>
     </g>
    </g>
    <g id="text_25">
     <text style="font-size: 11px; font-family: 'DejaVu Sans'; text-anchor: middle; fill: #606660" x="860.347059" y="551.139844" transform="rotate(-0 860.347059 551.139844)">ERRANT F0.5 (0–100); higher is better</text>
    </g>
   </g>
   <g id="matplotlib.axis_4">
    <g id="ytick_7">
     <g id="line2d_27" />
     <g id="text_26">
      <text style="font-size: 13px; font-family: 'DejaVu Sans'; text-anchor: end; fill: #303632" x="695.494118" y="241.328782" transform="rotate(-0 695.494118 241.328782)">Write &amp; Improve</text>
     </g>
    </g>
    <g id="ytick_8">
     <g id="line2d_28" />
     <g id="text_27">
      <text style="font-size: 13px; font-family: 'DejaVu Sans'; text-anchor: end; fill: #303632" x="695.494118" y="290.772863" transform="rotate(-0 695.494118 290.772863)">FCE</text>
     </g>
    </g>
    <g id="ytick_9">
     <g id="line2d_29" />
     <g id="text_28">
      <text style="font-size: 13px; font-family: 'DejaVu Sans'; text-anchor: end; fill: #303632" x="695.494118" y="340.102178" transform="rotate(-0 695.494118 340.102178)">C4_200M</text>
     </g>
    </g>
    <g id="ytick_10">
     <g id="line2d_30" />
     <g id="text_29">
      <text style="font-size: 13px; font-family: 'DejaVu Sans'; text-anchor: end; fill: #303632" x="695.494118" y="389.661025" transform="rotate(-0 695.494118 389.661025)">GitHub Typo</text>
     </g>
    </g>
    <g id="ytick_11">
     <g id="line2d_31" />
     <g id="text_30">
      <text style="font-size: 13px; font-family: 'DejaVu Sans'; text-anchor: end; fill: #303632" x="695.494118" y="439.105106" transform="rotate(-0 695.494118 439.105106)">WikEd</text>
     </g>
    </g>
    <g id="ytick_12">
     <g id="line2d_32" />
     <g id="text_31">
      <text style="font-size: 13px; font-family: 'DejaVu Sans'; text-anchor: end; fill: #303632" x="695.494118" y="488.549187" transform="rotate(-0 695.494118 488.549187)">Available-source mix</text>
     </g>
    </g>
   </g>
   <g id="patch_11">
    <path d="M 705.494118 511.2  L 1015.2 511.2  " style="fill: none; stroke: #c6c6bf; stroke-width: 0.8; stroke-linejoin: miter; stroke-linecap: square" />
   </g>
   <g id="patch_12">
    <path d="M 705.494118 222.545455  L 735.676859 222.545455  L 735.676859 250.23414  L 705.494118 250.23414  z " clip-path="url(#p0d13bf38f7)" style="fill: url(#h3d63b0d4ae); stroke: #925c2b; stroke-width: 0.5; stroke-linejoin: miter" />
   </g>
   <g id="patch_13">
    <path d="M 705.494118 271.989536  L 711.810963 271.989536  L 711.810963 299.678221  L 705.494118 299.678221  z " clip-path="url(#p0d13bf38f7)" style="fill: url(#h3d63b0d4ae); stroke: #925c2b; stroke-width: 0.5; stroke-linejoin: miter" />
   </g>
   <g id="patch_14">
    <path d="M 705.494118 321.433617  L 705.494118 321.433617  L 705.494118 349.122302  L 705.494118 349.122302  z " clip-path="url(#p0d13bf38f7)" style="fill: url(#h3d63b0d4ae); stroke: #925c2b; stroke-width: 0.5; stroke-linejoin: miter" />
   </g>
   <g id="patch_15">
    <path d="M 705.494118 370.877698  L 705.494118 370.877698  L 705.494118 398.566383  L 705.494118 398.566383  z " clip-path="url(#p0d13bf38f7)" style="fill: url(#h3d63b0d4ae); stroke: #925c2b; stroke-width: 0.5; stroke-linejoin: miter" />
   </g>
   <g id="patch_16">
    <path d="M 705.494118 420.321779  L 705.494118 420.321779  L 705.494118 448.010464  L 705.494118 448.010464  z " clip-path="url(#p0d13bf38f7)" style="fill: url(#h3d63b0d4ae); stroke: #925c2b; stroke-width: 0.5; stroke-linejoin: miter" />
   </g>
   <g id="patch_17">
    <path d="M 705.494118 469.76586  L 722.992614 469.76586  L 722.992614 497.454545  L 705.494118 497.454545  z " clip-path="url(#p0d13bf38f7)" style="fill: url(#h3d63b0d4ae); stroke: #925c2b; stroke-width: 0.5; stroke-linejoin: miter" />
   </g>
   <g id="text_32">
    <text style="font-weight: 700; font-size: 13px; font-family: 'DejaVu Sans'; text-anchor: start; fill: #303632" x="743.419506" y="239.976985" transform="rotate(-0 743.419506 239.976985)">10.72</text>
   </g>
   <g id="text_33">
    <text style="font-weight: 700; font-size: 13px; font-family: 'DejaVu Sans'; text-anchor: start; fill: #303632" x="719.55361" y="289.421066" transform="rotate(-0 719.55361 289.421066)">2.24</text>
   </g>
   <g id="text_34">
    <text style="font-weight: 700; font-size: 13px; font-family: 'DejaVu Sans'; text-anchor: start; fill: #303632" x="713.236765" y="338.865147" transform="rotate(-0 713.236765 338.865147)">0.00</text>
   </g>
   <g id="text_35">
    <text style="font-weight: 700; font-size: 13px; font-family: 'DejaVu Sans'; text-anchor: start; fill: #303632" x="713.236765" y="388.309228" transform="rotate(-0 713.236765 388.309228)">0.00</text>
   </g>
   <g id="text_36">
    <text style="font-weight: 700; font-size: 13px; font-family: 'DejaVu Sans'; text-anchor: start; fill: #303632" x="713.236765" y="437.753309" transform="rotate(-0 713.236765 437.753309)">0.00</text>
   </g>
   <g id="text_37">
    <text style="font-weight: 700; font-size: 13px; font-family: 'DejaVu Sans'; text-anchor: start; fill: #303632" x="730.735261" y="487.19739" transform="rotate(-0 730.735261 487.19739)">6.22</text>
   </g>
   <g id="text_38">
    <text style="font-weight: 700; font-size: 15px; font-family: 'DejaVu Sans'; text-anchor: start; fill: #303632" x="705.494118" y="186.8" transform="rotate(-0 705.494118 186.8)">JFLEG test: 747 complete sentences</text>
   </g>
   <g id="PathCollection_1">
    <defs>
     <path id="m2430817af4" d="M 0 3.082207  C 0.817411 3.082207 1.601453 2.757446 2.179449 2.179449  C 2.757446 1.601453 3.082207 0.817411 3.082207 0  C 3.082207 -0.817411 2.757446 -1.601453 2.179449 -2.179449  C 1.601453 -2.757446 0.817411 -3.082207 0 -3.082207  C -0.817411 -3.082207 -1.601453 -2.757446 -2.179449 -2.179449  C -2.757446 -1.601453 -3.082207 -0.817411 -3.082207 0  C -3.082207 0.817411 -2.757446 1.601453 -2.179449 2.179449  C -1.601453 2.757446 -0.817411 3.082207 0 3.082207  z " style="stroke: #466887" />
    </defs>
    <g>
     <use ns4:href="#m2430817af4" x="705.494118" y="236.389797" style="fill: #466887; stroke: #466887" />
     <use ns4:href="#m2430817af4" x="705.494118" y="285.833878" style="fill: #466887; stroke: #466887" />
     <use ns4:href="#m2430817af4" x="705.494118" y="335.277959" style="fill: #466887; stroke: #466887" />
     <use ns4:href="#m2430817af4" x="705.494118" y="384.722041" style="fill: #466887; stroke: #466887" />
     <use ns4:href="#m2430817af4" x="705.494118" y="434.166122" style="fill: #466887; stroke: #466887" />
     <use ns4:href="#m2430817af4" x="705.494118" y="483.610203" style="fill: #466887; stroke: #466887" />
    </g>
   </g>
   <g id="legend_1">
    <g id="patch_18">
     <path d="M 702.105882 579.206437  L 722.105882 579.206437  L 722.105882 572.206437  L 702.105882 572.206437  z " style="fill: url(#h3d63b0d4ae); stroke: #925c2b; stroke-linejoin: miter" />
    </g>
    <g id="text_39">
     <text style="font-size: 10px; font-family: 'DejaVu Sans'; text-anchor: start; fill: #303632" x="730.105882" y="579.206437" transform="rotate(-0 730.105882 579.206437)">Diagnostic: quality gates unenforced</text>
    </g>
    <g id="line2d_33">
     <defs>
      <path id="mc884391768" d="M 0 3  C 0.795609 3 1.55874 2.683901 2.12132 2.12132  C 2.683901 1.55874 3 0.795609 3 0  C 3 -0.795609 2.683901 -1.55874 2.12132 -2.12132  C 1.55874 -2.683901 0.795609 -3 0 -3  C -0.795609 -3 -1.55874 -2.683901 -2.12132 -2.12132  C -2.683901 -1.55874 -3 -0.795609 -3 0  C -3 0.795609 -2.683901 1.55874 -2.12132 2.12132  C -1.55874 2.683901 -0.795609 3 0 3  z " style="stroke: #466887" />
     </defs>
     <g>
      <use ns4:href="#mc884391768" x="712.105882" y="590.384563" style="fill: #466887; stroke: #466887" />
     </g>
    </g>
    <g id="text_40">
     <text style="font-size: 10px; font-family: 'DejaVu Sans'; text-anchor: start; fill: #303632" x="730.105882" y="593.884563" transform="rotate(-0 730.105882 593.884563)">Policy with quality gates</text>
    </g>
   </g>
  </g>
  <g id="text_41">
   <text style="font-weight: 700; font-size: 12px; font-family: 'DejaVu Sans'; text-anchor: start; fill: #466887" x="64.8" y="36" transform="rotate(-0 64.8 36)">GAMMA EH  /  NATURAL-CORPUS TRAINING</text>
  </g>
  <g id="text_42">
   <text style="font-weight: 700; font-size: 29px; font-family: 'DejaVu Sans'; fill: #303632" transform="translate(64.8 101.235469)">Training completed.</text>
   <text style="font-weight: 700; font-size: 29px; font-family: 'DejaVu Sans'; fill: #303632" transform="translate(64.8 133.935688)">Quality gates passed: 0/6.</text>
  </g>
  <g id="text_43">
   <text style="font-size: 13px; font-family: 'DejaVu Sans'; text-anchor: start; fill: #606660" x="64.8" y="169.2" transform="rotate(-0 64.8 169.2)">5 bounded source pilots + available-source mix · 4 epochs · CPU/CUDA recorded per arm</text>
  </g>
  <g id="text_44">
   <text style="font-weight: 700; font-size: 14px; font-family: 'DejaVu Sans'; text-anchor: start; fill: #303632" x="64.8" y="586.8" transform="rotate(-0 64.8 586.8)">Access pending: NUCLE, Lang-8, cLang-8</text>
  </g>
  <g id="text_45">
   <text style="font-size: 11px; font-family: 'DejaVu Sans'; text-anchor: start; fill: #606660" x="64.8" y="619.2" transform="rotate(-0 64.8 619.2)">Dev gates: ≥95% edit precision, ≤2% changes to reference-accepted text, ≥25 proposed edits; both ONNX formats.</text>
  </g>
  <g id="text_46">
   <text style="font-size: 11px; font-family: 'DejaVu Sans'; text-anchor: start; fill: #606660" x="64.8" y="643.68" transform="rotate(-0 64.8 643.68)">Complete JFLEG regression diagnostic; best reference per sentence. Not official GLEU or browser reliability proof.</text>
  </g>
  <g id="text_47">
   <text style="font-size: 11px; font-family: 'DejaVu Sans'; text-anchor: start; fill: #606660" x="64.8" y="668.16" transform="rotate(-0 64.8 668.16)">Unequal samples, vocabularies and devices; one seed. No full-corpus ranking. Shipped model unchanged.</text>
  </g>
  <g id="text_48">
   <text style="font-size: 10px; font-family: 'DejaVu Sans'; text-anchor: start; fill: #606660" x="64.8" y="694.8" transform="rotate(-0 64.8 694.8)">Source: training-corpora-results.json · benchmark sources/references excluded from training · weights remain local</text>
  </g>
 </g>
 <defs>
  <clipPath id="p863401bf4f">
   <rect x="172.8" y="208.8" width="309.705882" height="302.4" />
  </clipPath>
  <clipPath id="p0d13bf38f7">
   <rect x="705.494118" y="208.8" width="309.705882" height="302.4" />
  </clipPath>
 </defs>
 <defs>
  <pattern id="h3d63b0d4ae" patternUnits="userSpaceOnUse" x="0" y="0" width="72" height="72">
   <rect x="0" y="0" width="73" height="73" fill="#b87942" />
   <path d="M -36 36  L 36 -36  M -30 42  L 42 -30  M -24 48  L 48 -24  M -18 54  L 54 -18  M -12 60  L 60 -12  M -6 66  L 66 -6  M 0 72  L 72 0  M 6 78  L 78 6  M 12 84  L 84 12  M 18 90  L 90 18  M 24 96  L 96 24  M 30 102  L 102 30  M 36 108  L 108 36  " style="fill: #925c2b; stroke: #925c2b; stroke-width: 1.0; stroke-linecap: butt; stroke-linejoin: miter" />
  </pattern>
 </defs>
</svg>